<?xml version="1.0" encoding="UTF-8"?>
<svg id="Layer_2" data-name="Layer 2" xmlns="http://www.w3.org/2000/svg" viewBox="0 0 101.52 92.93">
  <defs>
    <style>
      .cls-1 {
        fill: #515151;
      }
    </style>
  </defs>
  <g id="Layer_1-2" data-name="Layer 1">
    <g>
      <path class="cls-1" d="M96.3,40.36l-.48-.23-32.46,15.34c-6.96,3.29-18.25,3.29-25.21,0L5.7,40.13l-.48,.23c-6.96,3.29-6.96,8.62,0,11.91l32.93,15.56c6.96,3.29,18.25,3.29,25.21,0l32.93-15.56c6.96-3.29,6.96-8.62,0-11.91Z"/>
      <path class="cls-1" d="M5.22,29.95l.48,.23,32.46,15.34c6.96,3.29,18.25,3.29,25.21,0l32.46-15.34,.48-.23c6.96-3.29,6.96-8.62,0-11.91L63.36,2.47c-6.96-3.29-18.25-3.29-25.21,0L5.22,18.03c-6.96,3.29-6.96,8.62,0,11.91Z"/>
      <path class="cls-1" d="M96.3,62.99l-.48-.23-32.46,15.34c-6.96,3.29-18.25,3.29-25.21,0L5.7,62.76l-.48,.23c-6.96,3.29-6.96,8.62,0,11.91l32.93,15.56c6.96,3.29,18.25,3.29,25.21,0l32.93-15.56c6.96-3.29,6.96-8.62,0-11.91Z"/>
    </g>
  </g>
</svg>