<?xml version="1.0" encoding="UTF-8"?>
<svg id="Layer_2" data-name="Layer 2" xmlns="http://www.w3.org/2000/svg" viewBox="0 0 150.98 105.91">
  <defs>
    <style>
      .cls-1 {
        fill: #515151;
      }
    </style>
  </defs>
  <g id="Layer_1-2" data-name="Layer 1">
    <g>
      <path class="cls-1" d="M134.08,0H16.9C7.57,0,0,7.57,0,16.9V89.01c0,9.33,7.57,16.9,16.9,16.9h117.18c9.33,0,16.9-7.57,16.9-16.9V16.9c0-9.33-7.57-16.9-16.9-16.9ZM45.81,84.29H25.93c-3.98,0-6.63-2.46-6.63-6.16s2.65-6.16,6.63-6.16h19.88c3.98,0,6.63,2.46,6.63,6.16s-2.65,6.16-6.63,6.16Zm0-24.52H25.93c-3.98,0-6.63-2.46-6.63-6.16s2.65-6.16,6.63-6.16h19.88c3.98,0,6.63,2.46,6.63,6.16s-2.65,6.16-6.63,6.16Zm0-24.52H25.93c-3.98,0-6.63-2.46-6.63-6.16s2.65-6.16,6.63-6.16h19.88c3.98,0,6.63,2.46,6.63,6.16s-2.65,6.16-6.63,6.16Zm86.81,43.93c0,3.07-2.05,5.11-5.11,5.11h-51.14c-3.07,0-5.11-2.05-5.11-5.11v-4.09l35.28-15.85,26.08,17.39v2.56Zm0-14.83l-22.5-15.34c-1.53-1.02-3.07-1.02-5.11-.51l-33.75,15.34V28.04c0-3.07,2.05-5.11,5.11-5.11h51.14c3.07,0,5.11,2.05,5.11,5.11v36.31Z"/>
      <path class="cls-1" d="M94.49,39.32l-.57-.57c-.57,0-.57-.57-1.14-.57q-.57-.57-1.14-.57h-2.29q-.57,0-1.14,.57c-.57,0-.57,.57-1.14,.57l-.57,.57c-1.14,1.14-1.72,2.29-1.72,4.01s.57,2.86,1.72,4.01c1.14,1.14,2.29,1.72,4.01,1.72s2.86-.57,4.01-1.72c.57-.57,1.14-1.14,1.14-1.72,.57-.57,.57-1.72,.57-2.29s0-1.72-.57-2.29c0-.57-.57-1.14-1.14-1.72Z"/>
    </g>
  </g>
</svg>