<?xml version="1.0" encoding="UTF-8"?>
<svg id="Layer_2" data-name="Layer 2" xmlns="http://www.w3.org/2000/svg" viewBox="0 0 103.22 92.34">
  <defs>
    <style>
      .cls-1 {
        fill: #515151;
      }
    </style>
  </defs>
  <g id="Layer_1-2" data-name="Layer 1">
    <g>
      <path class="cls-1" d="M97.91,40.28l-.49-.22-33,15.19c-7.08,3.26-18.55,3.26-25.63,0L5.8,40.05l-.49,.22c-7.08,3.26-7.08,8.54,0,11.8l33.48,15.41c7.08,3.26,18.55,3.26,25.63,0l33.48-15.41c7.08-3.26,7.08-8.54,0-11.8Z"/>
      <path class="cls-1" d="M97.91,62.69l-.49-.22-33,15.19c-7.08,3.26-18.55,3.26-25.63,0L5.8,62.46l-.49,.22c-7.08,3.26-7.08,8.54,0,11.8l33.48,15.41c7.08,3.26,18.55,3.26,25.63,0l33.48-15.41c7.08-3.26,7.08-8.54,0-11.8Z"/>
      <path class="cls-1" d="M5.31,29.65l.49,.22,33,15.19c7.08,3.26,18.55,3.26,25.63,0l33-15.19,.49-.22c7.08-3.26,7.08-8.54,0-11.8L64.42,2.44c-7.08-3.26-18.55-3.26-25.63,0L5.31,17.86c-7.08,3.26-7.08,8.54,0,11.8Zm18.58-9.28l20.05-8.83c4.24-1.87,11.11-1.87,15.35,0l20.05,8.83c4.24,1.87,4.24,4.89,0,6.76l-.29,.13-19.76,8.7c-4.24,1.87-11.11,1.87-15.35,0l-19.76-8.7-.29-.13c-4.24-1.87-4.24-4.89,0-6.76Z"/>
    </g>
  </g>
</svg>